# xmcd
#
# Track frame offsets:
#	150
#	14454
#	34664
#	49138
#	77883
#	93186
#	122694
#	141988
#	154438
#	171149
#	183672
#	199099
#	211411
#	228589
#	243848
#	267987
#	279613
#	298938
#	313014
#	325781
#
# Disc length: 4747 seconds
#
# Revision: 0
# Processed by: cddbd v1.5.2PL0 Copyright (c) Steve Scherf et al.
# Submitted via: EasyCDDAExtractor 8.2.3.1
#
DISCID=2c128914
DTITLE=Various Artist - It's Country Blues  part2  CD2
DYEAR=2007
DGENRE=Country
TTITLE0=AL BASILE - Be A Woman
TTITLE1=MICHAEL POWERS - You Got To Go Down
TTITLE2=TAB BENOIT - Moon Coming Over The Hill
TTITLE3=T. and MASSON - My Baby Is Gone
TTITLE4=ERIC CLAPTON - Positively
TTITLE5=KEB' MO' - Eileen
TTITLE6=MARIA MULDAUR - To Be Alone With You
TTITLE7=TAB BENOIT - I'm On Your Side
TTITLE8=GUY DAVIS - Fonza Curry
TTITLE9=J.J.CALE and ERIC CLAPTON - Three Little Girls
TTITLE10=TOM PETTY - Ankle Deep
TTITLE11=ROCKY BURNETTE and  DARREL HIGHAM - Lonesome Tears In My Eyes
TTITLE12=Daylight - J.J.CALE - J.J. Cale
TTITLE13=DELTA MOON - Lovin' in the Moonlight
TTITLE14=FRANKIE MILLER - It's A Long Way Home
TTITLE15=JOE BONAMASSA - Tamp Em Up Solid
TTITLE16=DANNY  BRYANT - One Look
TTITLE17=GUY DAVIS - Shaky Pudding
TTITLE18=AL BASILE - Take My Word For It
TTITLE19=PETER FRAMPTON - Sending Me Angels
EXTD=
EXTT0=
EXTT1=
EXTT2=
EXTT3=
EXTT4=
EXTT5=
EXTT6=
EXTT7=
EXTT8=
EXTT9=
EXTT10=
EXTT11=
EXTT12=
EXTT13=
EXTT14=
EXTT15=
EXTT16=
EXTT17=
EXTT18=
EXTT19=
PLAYORDER=
